/vscmnt/brussel_pixiu_data/_data_brussel/112/vsc11236/PredSimResults/SUBJ06opt3D/expIG/worker_03.mot
version=1
nRows=5
nColumns=50
inDegrees=yes
endheader
                time	         pelvis_tilt	         pelvis_list	     pelvis_rotation	           pelvis_tx	           pelvis_ty	           pelvis_tz	       hip_flexion_r	     hip_adduction_r	      hip_rotation_r	        knee_angle_r	       ankle_angle_r	         mtp_angle_r	       hip_flexion_l	     hip_adduction_l	      hip_rotation_l	        knee_angle_l	       ankle_angle_l	         mtp_angle_l	    lumbar_extension	      lumbar_bending	     lumbar_rotation	 ercspn_r/activation	 intobl_r/activation	 extobl_r/activation	    abd_r/activation	    add_r/activation	hamstrings_r/activation	bifemsh_r/activation	glut_max_r/activation	iliopsoas_r/activation	rect_fem_r/activation	  vasti_r/activation	gastroc_r/activation	 soleus_r/activation	tib_ant_r/activation	 ercspn_l/activation	 intobl_l/activation	 extobl_l/activation	    abd_l/activation	    add_l/activation	hamstrings_l/activation	bifemsh_l/activation	glut_max_l/activation	iliopsoas_l/activation	rect_fem_l/activation	  vasti_l/activation	gastroc_l/activation	 soleus_l/activation	tib_ant_l/activation	
          0.00000000	         -0.82497777	         -4.69655667	          8.25399644	          0.00000000	          0.95253056	         -0.02070237	         20.66098589	          1.76919050	        -17.03183938	         -3.72618309	         -2.76387418	          0.19517301	        -10.85346480	         -6.59072681	        -11.14001953	        -12.09589359	          9.25961449	         28.70946121	         -6.59996628	          2.73193189	         -6.49516376	          0.19178871	          0.20845115	          0.00999999	          0.00999999	          0.21289981	          0.01480877	          0.00999999	          0.00999999	          0.09562613	          0.04701317	          0.12429852	          0.01244140	          0.00999999	          0.42682904	          0.07424473	          0.00999999	          0.00999999	          0.09877997	          0.00999999	          0.00999999	          0.16100880	          0.02185022	          0.12374707	          0.03708666	          0.00999999	          0.19464508	          0.32697066	          0.01699655	
          0.01464848	         -0.91427815	         -4.53475219	          8.21006698	          0.01498217	          0.95096070	         -0.01918331	         20.12631484	          1.87313119	        -17.01029406	         -3.69664459	         -3.17714751	          0.21485551	        -11.36803558	         -6.67333261	        -11.71216594	        -12.67738042	          8.53481119	         30.22775029	         -6.21176592	          2.94197540	         -6.83871299	          0.18638521	          0.19340275	          0.00999999	          0.00999999	          0.17112189	          0.02382518	          0.00999999	          0.00999999	          0.07686115	          0.03778765	          0.14800129	          0.00999999	          0.00999999	          0.44413952	          0.07851117	          0.00999999	          0.00999999	          0.07939611	          0.00999999	          0.00999999	          0.12941360	          0.02395953	          0.09946385	          0.02980904	          0.00999999	          0.18406510	          0.31138466	          0.01366127	
          0.02929695	         -0.98935106	         -4.37784373	          8.12287988	          0.03046582	          0.94955005	         -0.01765391	         19.42454829	          1.93485749	        -16.86381368	         -3.92788350	         -3.46025059	          0.18643669	        -11.85312795	         -6.77623074	        -12.29316331	        -13.39142744	          7.67458634	         31.77424393	         -5.78592454	          3.19725635	         -7.14797141	          0.14981033	          0.17990380	          0.00999999	          0.00999999	          0.13754217	          0.02949369	          0.00999999	          0.00999999	          0.06177848	          0.03037247	          0.13602608	          0.01244140	          0.01244140	          0.47584774	          0.09046213	          0.00999999	          0.00999999	          0.06381599	          0.00999999	          0.01000021	          0.10401842	          0.01925789	          0.07994578	          0.02395953	          0.00999999	          0.15979749	          0.29233641	          0.01098048	
          0.04394543	         -1.05372719	         -4.24759475	          7.98441481	          0.04622282	          0.94844209	         -0.01599176	         18.62126943	          2.03576008	        -16.87088226	         -4.06300730	         -3.77628830	          0.17619681	        -12.20341336	         -6.94491403	        -12.86606326	        -14.39065873	          6.66778501	         33.34726717	         -5.34773839	          3.50379214	         -7.41460065	          0.12041264	          0.14460078	          0.00999999	          0.02929437	          0.11055189	          0.04762791	          0.00999999	          0.01795308	          0.04965552	          0.02441240	          0.13092114	          0.00999999	          0.00999999	          0.50802980	          0.11825808	          0.00999999	          0.00999999	          0.05129320	          0.00999999	          0.00999999	          0.08927254	          0.01547886	          0.08281423	          0.01925789	          0.00999999	          0.12843999	          0.26766812	          0.00999999	
          0.05859390	         -1.10991642	         -4.15295369	          7.79740013	          0.06198193	          0.94788525	         -0.01414022	         17.82147068	          2.17237283	        -17.01199368	         -4.23547590	         -3.90073108	          0.15377417	        -12.30437490	         -7.21286058	        -13.42073464	        -15.82882729	          5.45232081	         34.95325834	         -4.92366423	          3.85504207	         -7.63703660	          0.11342406	          0.11622537	          0.00999999	          0.07195135	          0.08885799	          0.05239170	          0.00999999	          0.03072871	          0.03991148	          0.01962189	          0.11857831	          0.00999999	          0.00999999	          0.50506536	          0.15672552	          0.00999999	          0.00999999	          0.04122780	          0.02522334	          0.03849604	          0.07175435	          0.01244140	          0.06656338	          0.01547886	          0.00999999	          0.10323586	          0.24236515	          0.00999999	
